<svg xmlns="http://www.w3.org/2000/svg" viewBox="0 0 128 128" width="128" height="128">
  <rect width="128" height="128" rx="16" fill="#0a0f1d"/>
  <rect x="8" y="6" width="112" height="20" rx="8" fill="rgba(30,41,59,0.4)" stroke="rgba(51,65,85,0.4)" stroke-width="0.5"/>
  <text x="64" y="19" font-size="6" font-weight="700" fill="#e2e8f0" text-anchor="middle" font-family="sans-serif" letter-spacing="2">⚛ QUANTUM TIC-TAC-TOE</text>
  <g transform="translate(14,36)">
    <rect x="0" y="0" width="100" height="68" rx="10" fill="rgba(30,41,59,0.4)" stroke="rgba(51,65,85,0.4)" stroke-width="0.8" transform="translate(0,0)"/>
    <g transform="translate(5,5)">
      <rect x="0" y="0" width="28" height="28" rx="6" fill="rgba(15,23,42,0.7)" stroke="rgba(51,65,85,0.5)" stroke-width="0.8"/>
      <text x="14" y="20" font-size="14" fill="#06b6d4" text-anchor="middle" font-weight="700" font-family="sans-serif" text-shadow="0 0 8px rgba(6,182,212,0.5)">X</text>
    </g>
    <g transform="translate(36,5)">
      <rect x="0" y="0" width="28" height="28" rx="6" fill="rgba(15,23,42,0.7)" stroke="rgba(51,65,85,0.5)" stroke-width="0.8"/>
      <text x="14" y="20" font-size="14" fill="#d946ef" text-anchor="middle" font-weight="700" font-family="sans-serif" text-shadow="0 0 8px rgba(217,70,239,0.5)">O</text>
    </g>
    <g transform="translate(67,5)">
      <rect x="0" y="0" width="28" height="28" rx="6" fill="rgba(15,23,42,0.7)" stroke="rgba(51,65,85,0.5)" stroke-width="0.8"/>
      <text x="14" y="20" font-size="14" fill="#06b6d4" text-anchor="middle" font-weight="700" font-family="sans-serif" text-shadow="0 0 8px rgba(6,182,212,0.5)">X</text>
    </g>
    <g transform="translate(5,36)">
      <rect x="0" y="0" width="28" height="28" rx="6" fill="rgba(15,23,42,0.7)" stroke="rgba(51,65,85,0.5)" stroke-width="0.8"/>
      <text x="14" y="20" font-size="14" fill="#d946ef" text-anchor="middle" font-weight="700" font-family="sans-serif" text-shadow="0 0 8px rgba(217,70,239,0.5)">O</text>
    </g>
    <g transform="translate(36,36)">
      <rect x="0" y="0" width="28" height="28" rx="6" fill="rgba(15,23,42,0.7)" stroke="rgba(51,65,85,0.5)" stroke-width="0.8"/>
      <text x="14" y="20" font-size="14" fill="#06b6d4" text-anchor="middle" font-weight="700" font-family="sans-serif" opacity="0.45">X</text>
    </g>
    <g transform="translate(67,36)">
      <rect x="0" y="0" width="28" height="28" rx="6" fill="rgba(15,23,42,0.7)" stroke="rgba(51,65,85,0.5)" stroke-width="0.8"/>
      <text x="14" y="20" font-size="14" fill="#d946ef" text-anchor="middle" font-weight="700" font-family="sans-serif" text-shadow="0 0 8px rgba(217,70,239,0.5)">O</text>
    </g>
  </g>
  <rect x="34" y="112" width="60" height="10" rx="5" fill="rgba(30,41,59,0.4)" stroke="rgba(51,65,85,0.4)" stroke-width="0.5"/>
  <text x="64" y="120" font-size="5" fill="#94a3b8" text-anchor="middle" font-family="sans-serif" letter-spacing="1">⟳ NEW GAME</text>
</svg>
