<svg xmlns="http://www.w3.org/2000/svg" viewBox="0 0 128 128" width="128" height="128">
  <rect width="128" height="128" rx="16" fill="#090a0f"/>
  <g transform="translate(8,6)">
    <rect x="0" y="0" width="112" height="18" rx="8" fill="rgba(30,41,59,0.35)" stroke="rgba(51,65,85,0.35)" stroke-width="0.5"/>
    <text x="14" y="12" font-size="4.5" fill="#475569" font-family="sans-serif" letter-spacing="1">SCORE</text>
    <text x="14" y="6" font-size="7" fill="#e2e8f0" font-weight="700" font-family="sans-serif">180</text>
    <text x="48" y="12" font-size="4.5" fill="#475569" font-family="sans-serif" letter-spacing="1">MULTI</text>
    <text x="48" y="6" font-size="7" fill="#10b981" font-weight="700" font-family="sans-serif" text-shadow="0 0 6px rgba(16,185,129,0.3)">×4</text>
    <text x="82" y="12" font-size="4.5" fill="#475569" font-family="sans-serif" letter-spacing="1">HIGH</text>
    <text x="82" y="6" font-size="7" fill="#e2e8f0" font-weight="700" font-family="sans-serif">520</text>
  </g>
  <g transform="translate(14,28)">
    <rect x="0" y="0" width="100" height="14" rx="20" fill="rgba(30,41,59,0.35)" stroke="#38bdf8" stroke-width="0.8"/>
    <text x="50" y="10" font-size="5.5" fill="#38bdf8" text-anchor="middle" font-family="sans-serif" font-weight="700" letter-spacing="2" text-shadow="0 0 8px rgba(56,182,248,0.3)">MATCH COLOR</text>
  </g>
  <g transform="translate(14,46)">
    <rect x="0" y="0" width="100" height="44" rx="8" fill="rgba(30,41,59,0.2)" stroke="rgba(51,65,85,0.35)" stroke-width="0.5"/>
    <g transform="translate(44,4)">
      <svg width="20" height="20" viewBox="0 0 40 40">
        <circle cx="20" cy="20" r="16" fill="#ef4444"/>
      </svg>
    </g>
    <text x="50" y="42" font-size="3.5" fill="#475569" text-anchor="middle" font-family="sans-serif">▼</text>
  </g>
  <g transform="translate(14,94)">
    <g transform="translate(0,0)">
      <rect x="0" y="0" width="30" height="28" rx="6" fill="rgba(30,41,59,0.35)" stroke="rgba(51,65,85,0.35)" stroke-width="0.5"/>
      <g transform="translate(5,3)">
        <svg width="20" height="20" viewBox="0 0 40 40">
          <circle cx="20" cy="20" r="16" fill="#ef4444"/>
        </svg>
      </g>
      <text x="15" y="25" font-size="3" fill="#475569" text-anchor="middle" font-family="sans-serif">RED</text>
    </g>
    <g transform="translate(35,0)">
      <rect x="0" y="0" width="30" height="28" rx="6" fill="rgba(30,41,59,0.35)" stroke="rgba(51,65,85,0.35)" stroke-width="0.5"/>
      <g transform="translate(5,3)">
        <svg width="20" height="20" viewBox="0 0 40 40">
          <circle cx="20" cy="20" r="16" fill="#10b981"/>
        </svg>
      </g>
      <text x="15" y="25" font-size="3" fill="#475569" text-anchor="middle" font-family="sans-serif">GREEN</text>
    </g>
    <g transform="translate(70,0)">
      <rect x="0" y="0" width="30" height="28" rx="6" fill="rgba(30,41,59,0.35)" stroke="rgba(51,65,85,0.35)" stroke-width="0.5"/>
      <g transform="translate(5,3)">
        <svg width="20" height="20" viewBox="0 0 40 40">
          <circle cx="20" cy="20" r="16" fill="#38bdf8"/>
        </svg>
      </g>
      <text x="15" y="25" font-size="3" fill="#475569" text-anchor="middle" font-family="sans-serif">BLUE</text>
    </g>
  </g>
</svg>
