<svg xmlns="http://www.w3.org/2000/svg" viewBox="0 0 128 128" width="128" height="128">
  <rect width="128" height="128" rx="16" fill="#06090e"/>
  <!-- Status row -->
  <g transform="translate(5,4)">
    <rect x="0" y="0" width="118" height="16" rx="7" fill="rgba(255,255,255,0.02)" stroke="#111827" stroke-width="0.5"/>
    <text x="8" y="5" font-size="3" fill="#475569" font-family="monospace" letter-spacing="1">FIAT</text>
    <text x="5" y="13" font-size="5" fill="#e2e8f0" font-family="monospace" font-weight="700">$9,840</text>
    <text x="38" y="5" font-size="3" fill="#475569" font-family="monospace" letter-spacing="1">NEXA</text>
    <text x="36" y="13" font-size="5" fill="#e2e8f0" font-family="monospace" font-weight="700">1.2500</text>
    <text x="66" y="5" font-size="3" fill="#475569" font-family="monospace" letter-spacing="1">ENTRY</text>
    <text x="66" y="13" font-size="5" fill="#e2e8f0" font-family="monospace" font-weight="700">$98.40</text>
    <text x="92" y="5" font-size="3" fill="#475569" font-family="monospace" letter-spacing="1">WORTH</text>
    <text x="90" y="13" font-size="5" fill="#10b981" font-family="monospace" font-weight="700">$9,963</text>
  </g>
  <!-- Ticker -->
  <g transform="translate(5,22)">
    <rect x="0" y="0" width="118" height="14" rx="6" fill="rgba(255,255,255,0.02)" stroke="#111827" stroke-width="0.5"/>
    <rect x="4" y="2" width="32" height="10" rx="4" fill="rgba(255,255,255,0.03)"/>
    <text x="20" y="9" font-size="5" fill="#94a3b8" font-family="monospace" font-weight="700">NEXA</text>
    <text x="44" y="9" font-size="9" fill="#e2e8f0" font-family="monospace" font-weight="800">$98.40</text>
    <rect x="90" y="2" width="26" height="10" rx="4" fill="rgba(16,185,129,0.15)"/>
    <text x="103" y="9" font-size="5" fill="#10b981" font-family="monospace" font-weight="600">+0.42%</text>
  </g>
  <!-- Chart -->
  <g transform="translate(5,40)">
    <rect x="0" y="0" width="118" height="44" rx="6" fill="rgba(255,255,255,0.02)" stroke="#111827" stroke-width="0.5"/>
    <!-- Sparkline -->
    <polyline points="8,36 20,32 32,34 44,28 56,30 68,22 80,24 92,18 104,20 112,16"
              fill="none" stroke="#10b981" stroke-width="1.8"/>
    <polygon points="8,36 8,44 112,44 112,16 104,20 92,18 80,24 68,22 56,30 44,28 32,34 20,32"
             fill="rgba(16,185,129,0.04)"/>
    <text x="112" y="13" font-size="3.5" fill="#10b981" font-family="monospace" font-weight="600">98.40</text>
  </g>
  <!-- Dock -->
  <g transform="translate(5,88)">
    <rect x="0" y="0" width="118" height="18" rx="6" fill="rgba(255,255,255,0.02)" stroke="#111827" stroke-width="0.5"/>
    <rect x="4" y="3" width="60" height="12" rx="4" fill="rgba(0,0,0,0.3)" stroke="#111827" stroke-width="0.5"/>
    <text x="10" y="11" font-size="4" fill="#475569" font-family="monospace">Quantity</text>
    <rect x="68" y="3" width="22" height="12" rx="4" fill="#10b981"/>
    <text x="79" y="11" font-size="5" fill="#fff" text-anchor="middle" font-family="monospace" font-weight="600">Buy</text>
    <rect x="92" y="3" width="22" height="12" rx="4" fill="#ef4444"/>
    <text x="103" y="11" font-size="5" fill="#fff" text-anchor="middle" font-family="monospace" font-weight="600">Sell</text>
  </g>
  <!-- Ledger -->
  <g transform="translate(5,108)">
    <rect x="0" y="0" width="118" height="16" rx="6" fill="rgba(255,255,255,0.02)" stroke="#111827" stroke-width="0.5"/>
    <text x="4" y="3" font-size="2.5" fill="#475569" font-family="monospace" letter-spacing="1">TRANSACTION HISTORY</text>
    <text x="8" y="10" font-size="3" fill="#10b981" font-family="monospace" font-weight="600">BUY</text>
    <text x="22" y="10" font-size="3" fill="#94a3b8" font-family="monospace">1.2500</text>
    <text x="44" y="10" font-size="3" fill="#94a3b8" font-family="monospace">$98.40</text>
    <text x="68" y="10" font-size="3" fill="#94a3b8" font-family="monospace">$123.00</text>
    <text x="92" y="10" font-size="3" fill="#475569" font-family="monospace">12:30:05</text>
  </g>
</svg>
