<svg xmlns="http://www.w3.org/2000/svg" viewBox="0 0 128 128" width="128" height="128">
  <rect width="128" height="128" rx="16" fill="#0a0f1d"/>
  <g transform="translate(6,6)">
    <rect x="0" y="0" width="116" height="16" rx="8" fill="rgba(30,41,59,0.35)" stroke="rgba(51,65,85,0.35)" stroke-width="0.5"/>
    <text x="8" y="11" font-size="4" fill="#475569" font-family="monospace" letter-spacing="1">TARGET</text>
    <text x="8" y="6" font-size="5.5" fill="#06b6d4" font-family="monospace" font-weight="700">RIGHT ∆</text>
    <text x="58" y="11" font-size="4" fill="#475569" font-family="monospace" letter-spacing="1">LEVEL</text>
    <text x="58" y="6" font-size="5.5" fill="#e2e8f0" font-family="monospace" font-weight="700">2</text>
    <text x="84" y="11" font-size="4" fill="#475569" font-family="monospace" letter-spacing="1">SCORE</text>
    <text x="84" y="6" font-size="5.5" fill="#e2e8f0" font-family="monospace" font-weight="700">45</text>
  </g>
  <g transform="translate(14,28)">
    <rect x="0" y="0" width="100" height="72" rx="10" fill="rgba(30,41,59,0.15)" stroke="rgba(51,65,85,0.35)" stroke-width="0.5"/>
    <!-- Grid dots 6×6 for thumbnail -->
    <g transform="translate(6,6)" opacity="0.4">
      <circle cx="0" cy="0" r="2" fill="#94a3b8"/>
      <circle cx="12" cy="0" r="2" fill="#94a3b8"/>
      <circle cx="24" cy="0" r="2" fill="#94a3b8"/>
      <circle cx="36" cy="0" r="2" fill="#94a3b8"/>
      <circle cx="48" cy="0" r="2" fill="#94a3b8"/>
      <circle cx="60" cy="0" r="2" fill="#94a3b8"/>
      <circle cx="0" cy="12" r="2" fill="#94a3b8"/>
      <circle cx="12" cy="12" r="2" fill="#94a3b8"/>
      <circle cx="24" cy="12" r="2" fill="#94a3b8"/>
      <circle cx="36" cy="12" r="2" fill="#94a3b8"/>
      <circle cx="48" cy="12" r="2" fill="#94a3b8"/>
      <circle cx="60" cy="12" r="2" fill="#94a3b8"/>
      <circle cx="0" cy="24" r="2" fill="#94a3b8"/>
      <circle cx="12" cy="24" r="2" fill="#94a3b8"/>
      <circle cx="24" cy="24" r="2" fill="#94a3b8"/>
      <circle cx="36" cy="24" r="2" fill="#94a3b8"/>
      <circle cx="48" cy="24" r="2" fill="#94a3b8"/>
      <circle cx="60" cy="24" r="2" fill="#94a3b8"/>
      <circle cx="0" cy="36" r="2" fill="#94a3b8"/>
      <circle cx="12" cy="36" r="2" fill="#94a3b8"/>
      <circle cx="24" cy="36" r="2" fill="#94a3b8"/>
      <circle cx="36" cy="36" r="2" fill="#94a3b8"/>
      <circle cx="48" cy="36" r="2" fill="#94a3b8"/>
      <circle cx="60" cy="36" r="2" fill="#94a3b8"/>
      <circle cx="0" cy="48" r="2" fill="#94a3b8"/>
      <circle cx="12" cy="48" r="2" fill="#94a3b8"/>
      <circle cx="24" cy="48" r="2" fill="#94a3b8"/>
      <circle cx="36" cy="48" r="2" fill="#94a3b8"/>
      <circle cx="48" cy="48" r="2" fill="#94a3b8"/>
      <circle cx="60" cy="48" r="2" fill="#94a3b8"/>
      <circle cx="0" cy="60" r="2" fill="#94a3b8"/>
      <circle cx="12" cy="60" r="2" fill="#94a3b8"/>
      <circle cx="24" cy="60" r="2" fill="#94a3b8"/>
      <circle cx="36" cy="60" r="2" fill="#94a3b8"/>
      <circle cx="48" cy="60" r="2" fill="#94a3b8"/>
      <circle cx="60" cy="60" r="2" fill="#94a3b8"/>
    </g>
    <!-- Snake path forming a right triangle -->
    <polyline points="18,18 42,18 42,54 18,18" fill="none" stroke="#06b6d4" stroke-width="2.5" stroke-linejoin="round" opacity="0.8"/>
    <circle cx="18" cy="18" r="3.5" fill="#06b6d4"/>
  </g>
  <g transform="translate(28,110)">
    <rect x="0" y="0" width="72" height="10" rx="5" fill="rgba(30,41,59,0.35)" stroke="rgba(51,65,85,0.35)" stroke-width="0.5"/>
    <text x="36" y="7" font-size="4" fill="#94a3b8" text-anchor="middle" font-family="sans-serif">⟳ RESET LEVEL  ↺ CLEAR</text>
  </g>
</svg>
