<svg xmlns="http://www.w3.org/2000/svg" viewBox="0 0 128 128" width="128" height="128">
  <rect width="128" height="128" rx="16" fill="#0d1117"/>
  <rect x="8" y="8" width="112" height="24" rx="8" fill="rgba(22,27,34,0.6)" stroke="rgba(48,54,61,0.5)" stroke-width="0.5"/>
  <text x="16" y="24" font-size="7" font-weight="700" fill="#58a6ff" font-family="monospace">⟁ DevFinder</text>
  <circle cx="108" cy="20" r="5" fill="rgba(139,148,158,0.4)"/>
  <rect x="8" y="38" width="112" height="12" rx="8" fill="rgba(22,27,34,0.6)" stroke="rgba(48,54,61,0.5)" stroke-width="0.5"/>
  <rect x="16" y="42" width="12" height="4" rx="2" fill="rgba(139,148,158,0.3)"/>
  <rect x="40" y="42" width="40" height="4" rx="2" fill="rgba(139,148,158,0.15)"/>
  <rect x="92" y="41" width="20" height="6" rx="3" fill="#58a6ff"/>
  <rect x="8" y="56" width="112" height="48" rx="10" fill="rgba(22,27,34,0.6)" stroke="rgba(48,54,61,0.5)" stroke-width="0.5"/>
  <circle cx="24" cy="72" r="12" fill="rgba(48,54,61,0.5)"/>
  <rect x="42" y="66" width="40" height="4" rx="2" fill="rgba(240,246,252,0.6)"/>
  <rect x="42" y="74" width="24" height="3" rx="1.5" fill="rgba(139,148,158,0.4)"/>
  <rect x="42" y="80" width="50" height="3" rx="1.5" fill="rgba(139,148,158,0.25)"/>
  <g transform="translate(8,92)">
    <rect x="0" y="0" width="26" height="10" rx="3" fill="rgba(255,255,255,0.03)" stroke="rgba(48,54,61,0.5)" stroke-width="0.5"/>
    <text x="13" y="7" font-size="5" fill="#58a6ff" text-anchor="middle" font-weight="bold">12</text>
    <text x="13" y="-1" font-size="3" fill="rgba(139,148,158,0.6)" text-anchor="middle">REPOS</text>
  </g>
  <g transform="translate(38,92)">
    <rect x="0" y="0" width="26" height="10" rx="3" fill="rgba(255,255,255,0.03)" stroke="rgba(48,54,61,0.5)" stroke-width="0.5"/>
    <text x="13" y="7" font-size="5" fill="#58a6ff" text-anchor="middle" font-weight="bold">84</text>
    <text x="13" y="-1" font-size="3" fill="rgba(139,148,158,0.6)" text-anchor="middle">FOLLOWERS</text>
  </g>
  <g transform="translate(68,92)">
    <rect x="0" y="0" width="26" height="10" rx="3" fill="rgba(255,255,255,0.03)" stroke="rgba(48,54,61,0.5)" stroke-width="0.5"/>
    <text x="13" y="7" font-size="5" fill="#58a6ff" text-anchor="middle" font-weight="bold">5</text>
    <text x="13" y="-1" font-size="3" fill="rgba(139,148,158,0.6)" text-anchor="middle">FOLLOWING</text>
  </g>
  <g transform="translate(98,92)">
    <rect x="0" y="0" width="20" height="10" rx="3" fill="rgba(255,255,255,0.03)" stroke="rgba(48,54,61,0.5)" stroke-width="0.5"/>
    <text x="10" y="7" font-size="5" fill="#58a6ff" text-anchor="middle" font-weight="bold">3</text>
    <text x="10" y="-1" font-size="3" fill="rgba(139,148,158,0.6)" text-anchor="middle">GISTS</text>
  </g>
  <rect x="8" y="108" width="112" height="12" rx="6" fill="rgba(22,27,34,0.4)" stroke="rgba(48,54,61,0.5)" stroke-width="0.5"/>
  <rect x="16" y="112" width="32" height="4" rx="2" fill="rgba(139,148,158,0.15)"/>
  <rect x="52" y="112" width="32" height="4" rx="2" fill="rgba(139,148,158,0.1)"/>
  <rect x="88" y="112" width="24" height="4" rx="2" fill="rgba(139,148,158,0.08)"/>
</svg>
